<svg id="Capa_1" enable-background="new 0 0 511.999 511.999" height="512" viewBox="0 0 511.999 511.999" width="512" xmlns="http://www.w3.org/2000/svg"><g><path d="m326.586 373.253-39.22-5.699-17.54-35.54h-27.653l-17.54 35.54-39.22 5.699-8.546 26.301 28.38 27.663-6.7 39.062 22.372 16.255 35.081-18.444 35.08 18.443 22.372-16.255-6.7-39.062 28.38-27.663zm-52.068 43.49 4.372 25.488-22.89-12.033-22.89 12.033 4.372-25.488-18.518-18.05 25.591-3.719 11.445-23.189 11.445 23.189 25.591 3.719z"/><path d="m149.719 373.253-39.22-5.699-17.54-35.54h-27.654l-17.54 35.54-39.221 5.699-8.544 26.301 28.38 27.663-6.7 39.062 22.372 16.255 35.08-18.443 35.08 18.443 22.373-16.255-6.7-39.062 28.38-27.663zm-52.069 43.49 4.372 25.488-22.89-12.033-22.889 12.033 4.371-25.488-18.518-18.05 25.591-3.719 11.445-23.189 11.445 23.189 25.591 3.719z"/><path d="m511.999 399.554-8.544-26.301-39.221-5.699-17.54-35.54h-27.654l-17.54 35.54-39.22 5.699-8.546 26.301 28.38 27.663-6.7 39.062 22.373 16.255 35.08-18.443 35.08 18.443 22.371-16.255-6.7-39.062zm-60.614 17.189 4.371 25.488-22.889-12.033-22.89 12.033 4.372-25.488-18.518-18.05 25.591-3.719 11.445-23.189 11.445 23.189 25.591 3.719z"/><path d="m256 29.465c-74.715 0-135.5 60.785-135.5 135.5s60.785 135.5 135.5 135.5 135.5-60.785 135.5-135.5-60.786-135.5-135.5-135.5zm0 241c-58.173 0-105.5-47.327-105.5-105.5s47.327-105.5 105.5-105.5 105.5 47.327 105.5 105.5-47.328 105.5-105.5 105.5z"/><path d="m244.407 170.647-32.361-32.361-21.213 21.212 53.574 53.575 76.759-76.759-21.213-21.213z"/></g></svg>