<svg id="Capa_1" enable-background="new 0 0 510 510" height="512" viewBox="0 0 510 510" width="512" xmlns="http://www.w3.org/2000/svg"><g><path d="m255 0c-140.93 0-255 114.051-255 255 0 140.93 114.051 255 255 255 140.93 0 255-114.051 255-255 0-140.93-114.051-255-255-255zm224.488 240h-45.118c-7.238-87.311-77.059-157.132-164.37-164.37v-45.118c112.138 7.418 202.07 97.35 209.488 209.488zm-224.488 165c-82.71 0-150-67.29-150-150s67.29-150 150-150 150 67.29 150 150-67.29 150-150 150zm-15-374.488v45.118c-87.311 7.238-157.132 77.059-164.37 164.37h-45.118c7.418-112.138 97.35-202.07 209.488-209.488zm-209.488 239.488h45.118c7.238 87.312 77.059 157.132 164.37 164.37v45.118c-112.138-7.418-202.07-97.35-209.488-209.488zm239.488 209.488v-45.118c87.311-7.238 157.132-77.059 164.37-164.37h45.118c-7.418 112.138-97.35 202.07-209.488 209.488z"/><path d="m330 195h-60v-30h-90v105h-30v30h210v-30h-30zm-120 75v-75h30v75zm60 0v-45h30v45z"/><path d="m210 330h90v30h-90z"/></g></svg>